<svg xmlns="http://www.w3.org/2000/svg" xmlns:xlink="http://www.w3.org/1999/xlink" width="793" zoomAndPan="magnify" viewBox="0 0 594.95996 842.24997" height="1122" preserveAspectRatio="xMidYMid meet" version="1.0"><defs><clipPath id="id1"><path d="M 0.246094 0 L 594.675781 0 L 594.675781 841.5 L 0.246094 841.5 Z M 0.246094 0 " clip-rule="nonzero"/></clipPath><clipPath id="id2"><path d="M 0.246094 0 L 594.675781 0 L 594.675781 840.792969 L 0.246094 840.792969 Z M 0.246094 0 " clip-rule="nonzero"/></clipPath><clipPath id="id3"><path d="M 0.246094 1 L 455 1 L 455 820 L 0.246094 820 Z M 0.246094 1 " clip-rule="nonzero"/></clipPath><clipPath id="id4"><path d="M 452 207 L 588.726562 207 L 588.726562 710 L 452 710 Z M 452 207 " clip-rule="nonzero"/></clipPath><clipPath id="id5"><path d="M 307 763 L 372 763 L 372 840.792969 L 307 840.792969 Z M 307 763 " clip-rule="nonzero"/></clipPath></defs><g clip-path="url(#id1)"><path fill="#ffffff" d="M 0.246094 0 L 594.714844 0 L 594.714844 847.53125 L 0.246094 847.53125 Z M 0.246094 0 " fill-opacity="1" fill-rule="nonzero"/></g><g clip-path="url(#id2)"><path fill="#ffffff" d="M 0.246094 0 L 594.714844 0 L 594.714844 840.792969 L 0.246094 840.792969 Z M 0.246094 0 " fill-opacity="1" fill-rule="nonzero"/></g><g clip-path="url(#id3)"><path fill="#b39659" d="M 441.714844 770.8125 C 433.734375 747.753906 426.636719 727.136719 420.429688 709.621094 C 414.222656 692.328125 410.453125 677.476562 410.453125 667.054688 C 410.453125 665.722656 410.453125 664.394531 410.453125 663.285156 C 410.453125 661.734375 410.230469 659.960938 410.230469 658.1875 C 410.230469 648.652344 411.117188 637.347656 414.222656 625.375 C 415.773438 619.386719 417.769531 612.957031 420.429688 606.75 C 421.761719 603.648438 423.3125 600.542969 424.644531 597.21875 C 425.53125 595.664062 426.195312 594.113281 427.082031 592.5625 L 427.746094 591.453125 C 427.746094 591.230469 427.96875 591.230469 427.96875 591.230469 C 426.417969 592.117188 424.199219 593.226562 422.648438 594.335938 C 420.875 595.445312 419.097656 596.773438 417.546875 598.105469 L 413.777344 601.875 C 412.226562 603.648438 410.671875 605.199219 409.121094 606.972656 C 409.785156 602.980469 410.453125 598.324219 411.117188 595.222656 C 411.558594 593.226562 412.003906 591.007812 412.667969 589.015625 C 413.777344 585.023438 415.109375 581.253906 416.660156 577.707031 C 418.210938 574.160156 419.984375 570.835938 421.761719 567.730469 C 422.203125 567.066406 422.648438 566.179688 423.089844 565.511719 L 423.3125 565.070312 L 423.753906 564.625 C 423.753906 564.625 423.3125 564.847656 423.089844 564.847656 C 421.316406 565.734375 419.542969 566.84375 417.992188 567.507812 C 414.664062 569.28125 411.78125 571.054688 409.566406 572.609375 C 405.128906 575.488281 402.691406 577.484375 402.46875 577.042969 C 402.027344 576.820312 404.6875 571.722656 408.011719 562.632812 C 410.894531 554.648438 414 542.898438 414.886719 528.710938 C 410.007812 536.914062 403.578125 544.894531 395.375 551.765625 L 389.164062 556.867188 L 392.714844 549.550781 C 400.03125 534.917969 402.914062 517.179688 403.578125 498.558594 C 404.242188 485.035156 404.023438 471.730469 405.128906 459.316406 C 405.796875 450.667969 407.125 442.246094 409.121094 434.484375 C 399.363281 448.453125 391.160156 460.425781 384.953125 469.070312 C 377.636719 479.269531 373.199219 485.253906 372.535156 484.8125 C 372.535156 484.8125 372.535156 484.589844 372.535156 484.367188 C 373.199219 482.59375 378.078125 474.390625 384.507812 460.203125 C 390.9375 446.011719 398.257812 425.171875 401.582031 399.457031 C 392.714844 415.640625 382.292969 432.933594 370.316406 450.449219 L 361.890625 462.640625 L 367.214844 448.894531 C 371.648438 437.589844 375.640625 425.617188 378.742188 413.199219 C 382.070312 399.457031 384.066406 385.710938 384.066406 372.628906 C 384.289062 359.328125 382.292969 346.6875 379.1875 334.9375 C 377.636719 328.953125 375.863281 323.410156 373.867188 317.867188 C 372.09375 312.988281 368.765625 305.007812 369.429688 307.226562 C 367.65625 311.4375 365.660156 315.648438 363.886719 319.640625 C 361.671875 324.296875 359.675781 328.730469 357.679688 332.941406 C 349.695312 349.792969 342.378906 363.09375 337.058594 372.183594 C 331.738281 381.273438 328.632812 385.929688 328.1875 385.710938 C 328.1875 385.710938 328.1875 385.488281 328.1875 385.488281 C 327.96875 385.710938 327.96875 385.710938 327.96875 385.710938 C 327.746094 385.710938 328.855469 381.273438 331.738281 373.738281 C 334.617188 366.199219 339.71875 355.558594 345.039062 342.035156 C 350.363281 328.507812 354.796875 311.214844 353.910156 291.484375 C 353.6875 281.730469 351.914062 271.308594 348.808594 260.890625 C 347.257812 255.566406 345.261719 250.46875 343.046875 245.371094 C 341.9375 242.707031 340.605469 240.269531 339.277344 237.609375 L 338.167969 235.613281 L 338.167969 236.945312 C 338.167969 239.605469 337.945312 242.042969 337.722656 244.703125 C 337.28125 249.804688 336.171875 255.125 334.617188 260.222656 C 332.84375 265.765625 332.179688 268.871094 326.859375 279.070312 L 323.53125 285.277344 L 322.644531 286.828125 C 322.644531 286.828125 322.644531 285.941406 322.644531 285.5 L 322.867188 282.171875 L 323.089844 278.847656 C 323.089844 277.738281 323.3125 276.851562 323.53125 275.078125 C 323.753906 273.527344 323.976562 271.972656 323.976562 270.644531 L 324.199219 267.539062 C 325.527344 252.019531 323.753906 236.722656 319.542969 222.753906 C 317.546875 215.660156 314.886719 209.007812 311.78125 202.582031 C 310.226562 199.476562 308.675781 196.371094 306.902344 193.269531 L 305.792969 191.714844 C 305.792969 191.714844 305.792969 191.714844 305.792969 191.9375 C 306.457031 195.042969 306.679688 198.589844 307.125 201.691406 C 307.566406 208.121094 307.566406 214.550781 307.125 220.761719 C 306.238281 232.953125 304.019531 244.261719 301.582031 254.238281 C 296.703125 274.414062 290.273438 289.933594 288.277344 301.238281 C 285.835938 312.546875 283.84375 318.753906 283.398438 318.53125 C 282.289062 318.3125 286.726562 300.574219 287.390625 271.308594 C 287.613281 256.675781 286.945312 239.160156 283.175781 220.316406 C 279.40625 201.472656 272.753906 181.074219 261.667969 161.566406 C 256.347656 151.808594 249.917969 142.941406 243.265625 134.960938 C 239.9375 130.96875 236.390625 127.199219 232.84375 123.652344 C 232.621094 123.429688 232.621094 123.429688 232.621094 123.652344 C 233.285156 125.425781 233.953125 126.976562 234.617188 128.753906 C 235.503906 130.96875 236.167969 133.1875 236.835938 135.402344 C 238.164062 139.835938 239.496094 144.269531 240.382812 148.484375 C 242.378906 156.910156 243.707031 165.113281 244.375 172.429688 C 245.703125 187.28125 244.816406 199.253906 243.488281 207.457031 C 242.15625 215.660156 240.605469 220.09375 240.382812 219.875 C 240.382812 219.875 240.160156 219.652344 240.160156 219.652344 C 239.9375 218.988281 239.71875 217.65625 239.496094 215.21875 C 239.273438 212.113281 238.832031 207.457031 237.941406 201.472656 C 236.167969 189.722656 233.066406 172.429688 225.527344 152.253906 C 217.988281 132.078125 206.011719 108.796875 187.386719 86.847656 C 184.949219 84.1875 182.511719 81.308594 180.070312 78.644531 C 177.410156 75.984375 174.972656 73.324219 172.308594 70.664062 C 170.757812 69.113281 169.207031 67.78125 167.433594 66.230469 C 167.875 68.226562 168.320312 70.222656 168.761719 72.4375 C 170.535156 80.199219 172.089844 88.402344 172.753906 96.605469 C 173.417969 105.03125 173.195312 113.453125 172.308594 122.101562 L 170.980469 137.175781 L 168.984375 122.101562 C 167.433594 110.570312 164.992188 98.820312 161.222656 87.292969 C 155.457031 69.335938 147.03125 52.484375 135.503906 38.738281 C 124.195312 24.992188 110.003906 14.574219 94.703125 8.367188 C 79.625 2.15625 63.660156 0.164062 49.46875 1.9375 C 42.375 3.042969 35.5 4.816406 29.292969 7.480469 C 23.304688 10.359375 17.539062 13.464844 12.882812 17.457031 C 10.445312 19.230469 8.449219 21.445312 6.230469 23.441406 L 5.566406 24.105469 L 5.34375 24.550781 L 4.679688 26.546875 C 4.234375 27.875 3.792969 29.207031 3.570312 30.535156 C 2.242188 35.855469 1.355469 41.179688 0.910156 46.054688 C 0.6875 47.609375 0.6875 49.160156 0.464844 50.710938 C 0.464844 52.707031 0.246094 54.703125 0.246094 56.917969 C 0.246094 67.339844 1.796875 79.976562 6.230469 93.277344 C 10.667969 106.359375 17.984375 120.105469 28.625 132.078125 C 39.269531 144.050781 52.574219 152.253906 64.105469 160.011719 C 75.855469 167.550781 86.941406 173.980469 96.253906 178.859375 C 114.882812 188.835938 127.078125 194.15625 126.632812 195.042969 C 126.632812 195.042969 126.410156 195.042969 126.191406 195.042969 C 123.75 194.820312 112.21875 190.164062 94.261719 183.292969 C 84.28125 179.523438 72.53125 175.089844 59.226562 170.433594 C 52.574219 168.214844 45.699219 165.777344 38.382812 163.117188 C 31.953125 160.898438 25.300781 158.683594 18.425781 156.464844 L 19.09375 157.574219 C 19.535156 158.460938 20.421875 159.125 20.867188 159.789062 C 23.304688 162.894531 25.964844 165.554688 28.625 168.214844 C 34.171875 173.316406 39.933594 177.75 45.699219 181.519531 C 57.453125 188.835938 68.980469 193.933594 78.960938 197.925781 C 98.695312 205.683594 111.332031 209.453125 111.113281 210.339844 C 111.113281 210.785156 107.121094 211.003906 100.023438 210.339844 C 92.929688 209.675781 82.730469 208.34375 70.3125 205.242188 C 64.105469 203.6875 57.453125 201.695312 50.136719 199.476562 C 46.585938 198.367188 42.816406 197.039062 39.046875 195.929688 C 38.605469 195.929688 38.605469 195.707031 39.046875 196.152344 C 40.15625 197.039062 41.265625 198.144531 42.375 199.03125 C 43.925781 200.363281 45.699219 201.695312 47.472656 203.023438 C 51.023438 205.683594 54.792969 207.902344 58.78125 209.898438 C 66.988281 214.109375 76.078125 216.992188 85.390625 219.429688 L 97.585938 222.535156 L 84.945312 222.976562 C 80.734375 223.199219 76.519531 223.199219 72.308594 223.421875 C 67.875 223.640625 63.660156 223.640625 59.226562 223.863281 L 61.222656 224.972656 C 62.332031 225.414062 63.4375 226.082031 64.546875 226.523438 C 73.640625 230.292969 83.171875 232.066406 92.042969 233.839844 C 110.226562 237.386719 126.191406 242.265625 139.273438 247.363281 C 145.257812 249.804688 150.582031 252.019531 155.457031 254.238281 C 164.328125 257.5625 170.980469 261.332031 175.414062 264.214844 C 180.292969 267.320312 182.511719 269.535156 182.289062 269.757812 C 182.066406 269.980469 181.179688 269.3125 179.40625 268.425781 C 178.519531 268.648438 169.871094 263.550781 154.792969 256.898438 C 153.90625 256.675781 153.242188 256.234375 152.574219 256.011719 C 142.820312 252.90625 130.402344 250.46875 116.210938 250.914062 C 109.117188 250.914062 101.578125 251.578125 93.59375 251.355469 C 89.605469 251.132812 85.390625 250.914062 81.398438 250.023438 C 79.402344 249.582031 77.1875 249.136719 75.191406 248.25 L 74.96875 248.25 C 76.078125 249.582031 77.1875 250.914062 78.296875 252.242188 C 80.957031 255.347656 83.617188 258.449219 86.722656 261.332031 C 92.707031 267.320312 99.136719 272.859375 106.234375 278.183594 C 124.636719 292.148438 144.59375 302.125 162.996094 310.109375 C 181.402344 318.3125 198.476562 324.742188 212.445312 330.28125 C 226.636719 336.046875 237.945312 340.925781 245.703125 344.695312 C 247.699219 345.800781 249.472656 346.6875 251.027344 347.355469 C 253.019531 348.464844 254.351562 349.128906 255.460938 349.792969 C 256.570312 350.457031 257.234375 350.902344 257.234375 351.125 C 257.234375 351.34375 256.347656 351.125 254.796875 350.457031 C 252.800781 349.570312 249.472656 348.242188 244.816406 346.246094 C 244.152344 346.023438 243.707031 345.800781 243.042969 345.582031 C 233.953125 342.253906 220.203125 338.707031 202.246094 338.265625 C 197.808594 337.820312 193.152344 337.820312 188.496094 337.378906 C 183.617188 336.933594 178.742188 336.492188 173.417969 335.605469 C 162.996094 334.050781 152.132812 331.613281 140.824219 328.289062 C 135.28125 326.515625 129.515625 324.519531 123.75 322.300781 C 120.867188 321.191406 117.984375 320.085938 115.101562 318.753906 C 113.550781 318.089844 112.21875 317.425781 110.890625 316.757812 L 107.5625 315.207031 L 106.898438 314.761719 L 108.671875 318.53125 L 111.113281 322.746094 C 112.664062 325.628906 114.4375 328.289062 116.210938 331.167969 C 117.984375 334.050781 119.980469 336.710938 121.753906 339.371094 C 137.5 360.878906 157.453125 377.507812 177.410156 389.035156 C 187.386719 394.800781 197.589844 399.234375 207.121094 402.558594 C 216.878906 405.886719 226.191406 408.101562 234.839844 409.875 C 250.582031 413.203125 263.664062 416.304688 272.753906 419.851562 C 275.417969 420.738281 277.632812 421.625 279.628906 422.734375 C 282.734375 424.285156 285.171875 425.617188 286.503906 426.726562 C 288.054688 427.832031 288.71875 428.277344 288.71875 428.5 C 288.71875 428.5 288.5 428.5 288.5 428.5 C 287.390625 428.277344 282.734375 425.839844 274.53125 422.734375 C 273.199219 422.292969 271.648438 421.625 270.09375 421.183594 C 264.773438 419.628906 258.121094 418.523438 250.359375 417.855469 C 237.722656 416.527344 222.421875 416.96875 204.90625 416.75 C 196.035156 416.527344 186.722656 415.863281 177.1875 414.308594 C 172.308594 413.421875 167.433594 412.535156 162.554688 411.425781 C 160.335938 410.761719 157.898438 410.320312 155.679688 409.652344 C 157.898438 411.425781 160.558594 413.203125 162.996094 414.976562 C 168.097656 418.523438 173.640625 421.625 179.183594 424.730469 C 190.492188 430.714844 202.910156 435.371094 215.992188 438.476562 C 217.542969 438.917969 219.097656 439.140625 220.648438 439.585938 L 222.867188 440.027344 C 224.195312 440.25 225.96875 440.691406 227.523438 440.914062 L 236.167969 442.464844 L 237.277344 442.6875 C 237.722656 442.6875 237.277344 442.6875 237.054688 442.910156 L 236.613281 443.132812 L 234.394531 443.796875 L 230.183594 445.125 L 225.96875 446.234375 C 224.640625 446.679688 222.867188 447.121094 222.421875 447.121094 C 220.871094 447.566406 219.316406 447.789062 217.765625 448.007812 C 214.660156 448.453125 211.558594 448.894531 208.453125 449.117188 C 201.136719 449.5625 194.039062 449.117188 187.167969 448.007812 C 192.265625 450.226562 197.589844 451.777344 202.6875 452.664062 C 212.222656 454.21875 221.757812 453.996094 230.847656 453.773438 C 249.03125 453.328125 264.996094 454.660156 277.855469 458.207031 C 290.9375 461.53125 300.25 467.296875 305.570312 472.175781 C 308.234375 474.613281 310.230469 476.609375 311.335938 478.160156 C 312.003906 479.269531 312.445312 479.714844 312.667969 480.15625 C 312.890625 480.378906 312.890625 480.601562 312.890625 480.601562 C 312.667969 480.601562 312.445312 480.378906 311.558594 479.714844 C 310.894531 479.046875 309.785156 478.160156 308.453125 477.050781 C 305.570312 474.835938 301.136719 471.953125 294.484375 469.734375 C 287.832031 467.519531 279.40625 466.410156 269.652344 467.074219 C 259.894531 467.519531 248.585938 469.515625 236.167969 470.84375 C 223.53125 471.953125 209.5625 471.730469 194.925781 469.515625 C 191.15625 468.847656 187.609375 468.183594 183.839844 467.296875 C 182.066406 466.855469 180.070312 466.410156 178.296875 465.96875 C 176.964844 465.523438 175.859375 465.300781 174.527344 464.859375 L 176.964844 468.183594 C 179.40625 471.289062 181.84375 474.390625 184.726562 477.496094 C 195.8125 489.46875 210.003906 499.886719 226.414062 506.539062 C 234.617188 509.863281 243.488281 512.527344 252.355469 514.964844 C 261.226562 517.402344 270.539062 520.0625 279.628906 522.503906 C 285.617188 524.054688 291.382812 525.828125 297.144531 527.378906 C 302.023438 528.710938 306.679688 530.039062 311.558594 531.371094 L 319.320312 533.585938 L 321.316406 534.253906 L 322.203125 534.472656 L 316.878906 534.472656 C 311.117188 534.695312 305.792969 534.695312 300.472656 534.695312 L 295.152344 534.695312 C 293.597656 534.695312 292.269531 534.695312 290.714844 534.472656 C 284.949219 534.253906 279.1875 533.585938 273.421875 532.921875 C 254.128906 530.484375 235.949219 525.828125 219.539062 519.621094 C 225.082031 524.277344 231.292969 527.601562 237.5 530.261719 C 246.371094 534.03125 255.238281 536.25 263.664062 538.023438 C 280.515625 541.347656 295.59375 543.121094 307.789062 546.226562 C 319.984375 549.105469 329.296875 553.097656 335.0625 556.644531 C 339.277344 559.082031 341.714844 561.078125 342.824219 562.1875 C 343.046875 562.410156 343.265625 562.410156 343.265625 562.632812 C 343.488281 562.851562 343.488281 562.851562 343.488281 562.851562 C 343.488281 562.851562 343.265625 562.851562 343.265625 562.851562 C 343.046875 562.851562 342.378906 562.851562 341.269531 562.410156 C 339.941406 561.964844 337.945312 560.859375 335.507812 560.191406 C 330.40625 558.417969 322.644531 556.867188 312.890625 556.867188 C 303.132812 556.644531 291.382812 557.753906 278.300781 557.976562 C 271.648438 557.976562 264.773438 557.753906 257.679688 556.203125 C 256.789062 555.980469 255.902344 555.757812 255.015625 555.535156 L 254.796875 555.535156 C 254.796875 555.535156 254.796875 555.757812 254.796875 555.757812 L 256.125 557.753906 C 256.570312 558.417969 257.011719 559.304688 257.679688 559.972656 C 258.785156 561.523438 259.671875 563.074219 261.003906 564.40625 C 270.09375 576.15625 281.625 584.800781 292.710938 591.007812 C 304.019531 597.21875 314.886719 601.652344 323.976562 604.976562 C 333.289062 608.082031 341.050781 609.410156 346.371094 610.742188 C 351.691406 611.851562 354.796875 612.515625 354.574219 612.957031 C 354.574219 612.957031 354.355469 613.179688 354.132812 613.179688 C 354.132812 613.179688 353.910156 613.179688 353.6875 613.179688 C 351.25 613.402344 343.710938 612.738281 331.957031 612.515625 C 324.863281 612.515625 315.992188 612.738281 306.460938 614.953125 C 299.808594 616.285156 292.710938 618.722656 285.171875 621.828125 C 292.046875 621.382812 298.921875 620.941406 306.238281 621.160156 C 311.78125 621.160156 317.769531 621.382812 323.53125 621.828125 C 326.414062 622.046875 329.519531 622.269531 332.402344 622.714844 C 337.945312 623.378906 343.488281 624.265625 349.253906 624.929688 C 345.707031 625.816406 342.378906 626.925781 338.832031 627.8125 C 337.058594 628.257812 335.285156 628.699219 333.734375 629.363281 L 331.292969 630.25 C 321.09375 634.019531 311.558594 639.121094 303.355469 645.105469 L 300.25 647.324219 L 298.699219 648.652344 C 303.578125 648.652344 308.675781 649.097656 313.554688 649.761719 C 332.84375 652.421875 349.253906 658.628906 362.113281 665.726562 C 363.886719 666.832031 365.660156 667.71875 367.4375 668.828125 C 371.425781 671.265625 375.640625 673.929688 379.851562 677.03125 C 383.621094 679.914062 387.390625 683.019531 391.160156 686.34375 C 392.933594 688.117188 394.929688 689.890625 396.703125 691.886719 C 397.589844 692.996094 398.257812 693.660156 399.585938 695.210938 C 400.03125 696.542969 400.695312 697.871094 401.140625 699.203125 C 405.351562 709.179688 409.121094 720.265625 412.667969 732.015625 C 419.765625 755.292969 425.085938 781.898438 433.734375 808.28125 C 435.066406 811.386719 436.617188 814.269531 438.835938 816.484375 C 441.050781 818.480469 444.15625 819.8125 447.039062 819.589844 C 449.921875 819.589844 452.582031 818.035156 453.46875 815.375 C 454.578125 812.9375 453.910156 809.613281 453.023438 806.730469 C 449.921875 794.3125 445.707031 782.34375 441.714844 770.8125 Z M 441.714844 770.8125 " fill-opacity="1" fill-rule="nonzero"/></g><path fill="#292e31" d="M 394.042969 611.628906 C 391.382812 620.941406 390.71875 629.585938 390.9375 635.128906 C 390.496094 633.796875 390.273438 632.246094 389.832031 630.917969 C 388.277344 625.375 386.503906 619.386719 384.507812 612.957031 C 381.625 602.980469 378.300781 592.117188 374.53125 580.144531 C 374.753906 577.929688 374.972656 575.046875 375.417969 571.277344 C 376.75 563.074219 380.738281 552.210938 386.28125 540.460938 C 391.605469 528.710938 395.816406 517.625 396.703125 508.976562 C 397.8125 500.554688 396.925781 495.230469 396.484375 495.230469 C 395.816406 495.230469 396.039062 500.554688 394.707031 508.757812 C 393.378906 516.960938 389.386719 527.824219 384.066406 539.574219 C 378.742188 551.324219 374.53125 562.410156 373.421875 570.835938 C 373.199219 572.609375 372.980469 574.160156 372.980469 575.488281 C 372.3125 573.273438 371.648438 571.277344 370.761719 569.0625 C 368.101562 561.078125 365.21875 552.65625 362.335938 543.785156 C 361.671875 541.789062 361.003906 539.796875 360.117188 537.800781 C 360.117188 537.800781 360.117188 537.355469 359.675781 536.691406 C 357.234375 530.261719 354.796875 523.609375 352.359375 516.738281 C 350.582031 511.417969 348.589844 506.097656 346.371094 500.554688 C 346.148438 497.449219 345.039062 490.796875 346.59375 483.261719 C 348.808594 472.617188 355.019531 465.96875 353.910156 465.300781 C 353.246094 464.414062 346.59375 471.511719 344.375 482.816406 C 343.488281 486.585938 343.488281 490.132812 343.710938 493.238281 C 342.378906 490.132812 341.269531 486.808594 339.941406 483.703125 C 339.941406 482.59375 339.941406 481.265625 339.941406 479.492188 C 340.382812 475.5 341.9375 469.957031 345.261719 463.75 C 348.589844 457.320312 353.246094 450.003906 357.015625 441.136719 C 361.003906 432.488281 364.773438 422.511719 367.878906 411.648438 C 374.085938 390.144531 375.640625 369.96875 375.417969 355.335938 C 375.195312 340.703125 373.421875 331.835938 372.980469 331.835938 C 372.3125 331.835938 373.421875 340.703125 373.421875 355.335938 C 373.199219 369.746094 371.648438 389.699219 365.660156 410.984375 C 362.777344 421.625 359.007812 431.382812 355.019531 440.027344 C 351.25 448.675781 346.59375 455.992188 343.488281 462.640625 C 340.164062 469.292969 338.609375 475.058594 338.609375 479.269531 C 338.609375 479.714844 338.609375 480.15625 338.609375 480.820312 C 335.503906 473.285156 332.402344 465.523438 329.296875 457.542969 C 321.980469 440.472656 314.21875 422.511719 305.792969 404.332031 C 305.570312 401.007812 305.128906 394.800781 306.902344 386.375 C 309.5625 373.738281 316.214844 356.886719 324.417969 338.707031 C 332.84375 320.527344 339.71875 303.679688 342.601562 290.820312 C 345.484375 277.960938 345.039062 269.535156 344.597656 269.757812 C 343.933594 269.757812 343.710938 277.738281 340.605469 290.375 C 337.5 303.011719 330.628906 319.640625 322.203125 337.820312 C 313.777344 356 307.125 372.851562 304.683594 385.929688 C 303.578125 392.140625 303.578125 397.015625 304.019531 400.785156 C 302.6875 397.683594 301.136719 394.578125 299.808594 391.695312 C 299.808594 389.035156 299.585938 385.265625 300.027344 380.386719 C 300.695312 371.078125 303.796875 358.21875 308.898438 344.695312 C 313.996094 331.167969 319.320312 318.976562 322.203125 309.886719 C 325.085938 300.796875 325.972656 294.808594 325.527344 294.808594 C 324.863281 294.589844 323.53125 300.351562 320.429688 309.222656 C 317.324219 318.3125 312.003906 330.28125 306.902344 343.808594 C 301.800781 357.554688 298.476562 370.632812 298.253906 380.167969 C 298.03125 383.269531 298.253906 385.929688 298.253906 388.148438 C 289.828125 370.410156 280.960938 352.453125 271.203125 334.273438 C 271.425781 330.726562 271.648438 323.632812 273.199219 314.542969 C 275.636719 300.574219 278.296875 280.84375 277.632812 259.117188 C 277.191406 237.386719 273.640625 217.65625 270.09375 203.910156 C 266.546875 190.164062 263 181.960938 262.554688 181.960938 C 261.890625 182.183594 264.773438 190.609375 268.097656 204.355469 C 271.203125 218.101562 274.75 237.609375 275.195312 259.117188 C 275.859375 280.84375 273.199219 300.132812 270.980469 314.320312 C 269.871094 322.078125 269.652344 328.289062 269.871094 332.277344 C 268.765625 330.28125 267.878906 328.289062 266.769531 326.292969 C 260.339844 314.320312 253.6875 302.570312 247.035156 291.261719 C 247.476562 290.597656 243.707031 285.71875 240.160156 276.410156 C 236.390625 266.875 233.730469 253.128906 232.84375 237.609375 C 231.957031 222.089844 231.511719 207.902344 229.738281 197.703125 C 228.1875 187.503906 225.96875 181.519531 225.527344 181.519531 C 224.859375 181.738281 226.632812 187.726562 227.742188 197.925781 C 229.074219 208.121094 229.515625 222.089844 230.402344 237.832031 C 231.292969 252.90625 233.953125 266.433594 237.722656 275.964844 C 235.949219 272.859375 233.953125 269.980469 232.179688 267.097656 C 230.625 263.550781 228.1875 257.339844 225.96875 248.917969 C 224.195312 242.042969 222.644531 233.839844 221.535156 224.527344 C 220.203125 215.21875 219.097656 205.019531 217.101562 194.378906 C 213.332031 173.09375 208.230469 154.027344 203.796875 140.503906 C 199.363281 126.976562 195.8125 118.996094 195.371094 119.21875 C 194.707031 119.441406 197.808594 127.644531 201.800781 141.167969 C 206.011719 154.691406 211.113281 173.535156 214.660156 194.820312 C 216.433594 205.460938 217.765625 215.660156 219.097656 224.972656 C 220.425781 234.285156 221.976562 242.710938 223.972656 249.582031 C 225.082031 253.351562 226.191406 256.675781 227.300781 259.335938 C 214.882812 239.605469 202.464844 220.761719 190.046875 203.023438 C 183.398438 194.15625 176.746094 185.289062 170.535156 176.863281 C 167.433594 172.648438 164.105469 168.4375 161 164.445312 C 160.113281 163.339844 159.226562 162.453125 158.5625 161.34375 C 157.675781 158.683594 155.238281 152.476562 154.128906 143.164062 C 153.242188 136.957031 153.019531 129.417969 152.132812 120.992188 C 151.246094 112.566406 149.472656 103.476562 147.03125 94.164062 C 141.933594 75.320312 133.726562 59.359375 126.410156 48.9375 C 119.09375 38.519531 112.886719 33.195312 112.664062 33.640625 C 112.21875 34.082031 117.761719 39.625 124.636719 50.046875 C 131.734375 60.464844 139.714844 76.207031 144.816406 94.609375 C 147.253906 103.921875 149.027344 113.011719 149.914062 121.214844 C 151.023438 129.417969 151.246094 136.957031 152.132812 143.382812 C 153.019531 150.035156 154.792969 155.136719 156.125 158.460938 C 154.570312 156.464844 153.019531 154.691406 151.246094 152.695312 C 144.816406 144.9375 138.828125 137.621094 132.839844 130.527344 C 129.515625 126.757812 126.1875 123.210938 122.863281 119.660156 C 122.421875 118.109375 121.3125 115.449219 120.425781 112.125 C 118.871094 106.136719 117.761719 97.492188 116.875 87.957031 C 115.988281 78.425781 114.660156 69.554688 112.441406 63.570312 C 110.222656 57.585938 107.5625 54.480469 107.121094 54.703125 C 106.457031 55.144531 108.671875 58.472656 110.445312 64.234375 C 112.441406 70 113.773438 78.644531 114.4375 88.179688 C 115.324219 97.714844 116.210938 106.582031 118.207031 112.566406 C 118.652344 114.121094 119.09375 115.226562 119.539062 116.558594 C 117.761719 114.785156 115.988281 112.789062 114.4375 111.015625 C 113.328125 109.683594 112 108.355469 110.890625 107.246094 C 110.003906 104.585938 108.671875 100.816406 107.34375 96.160156 C 104.460938 86.628906 101.796875 73.105469 96.921875 58.25 C 92.042969 43.617188 83.617188 31.644531 75.414062 25.4375 C 67.207031 19.007812 60.554688 18.34375 60.554688 18.785156 C 60.335938 19.449219 66.542969 20.78125 74.304688 26.988281 C 82.0625 33.195312 90.046875 44.726562 94.925781 58.914062 C 99.804688 73.324219 102.242188 87.070312 105.566406 96.605469 C 106.457031 99.488281 107.34375 101.925781 108.230469 103.921875 C 104.902344 100.152344 101.578125 96.605469 98.25 93.277344 C 92.707031 87.957031 87.609375 83.082031 82.730469 78.425781 C 77.851562 73.769531 73.417969 69.335938 69.203125 65.566406 C 64.992188 61.796875 60.777344 58.472656 57.230469 55.367188 C 49.914062 49.382812 44.371094 44.726562 40.378906 41.398438 C 38.382812 39.847656 37.050781 38.738281 35.945312 37.851562 C 34.835938 36.964844 34.390625 36.742188 34.390625 36.742188 C 34.390625 36.742188 34.835938 37.1875 35.722656 38.074219 C 36.609375 38.960938 38.160156 40.292969 39.933594 41.84375 C 43.703125 45.167969 49.246094 50.046875 56.34375 56.253906 C 59.890625 59.359375 63.882812 62.90625 68.09375 66.675781 C 72.308594 70.664062 76.742188 75.097656 81.398438 79.753906 C 86.277344 84.410156 91.378906 89.511719 96.699219 94.832031 C 101.578125 99.488281 106.234375 104.808594 111.113281 110.351562 C 111.554688 111.238281 112 111.679688 112.21875 111.679688 C 112.441406 111.902344 112.886719 112.347656 113.105469 112.566406 C 115.101562 114.785156 117.097656 117 119.09375 119.21875 C 116.210938 117.445312 112.441406 115.449219 107.5625 113.453125 C 101.578125 110.792969 94.257812 108.355469 86.277344 105.472656 C 78.292969 102.8125 69.203125 99.929688 60.335938 95.941406 C 51.464844 91.949219 43.261719 87.292969 37.050781 81.75 C 30.621094 76.207031 25.964844 70.222656 23.082031 64.679688 C 17.097656 53.371094 17.761719 45.167969 16.875 45.167969 C 16.652344 45.167969 16.210938 47.164062 16.652344 50.933594 C 17.097656 54.480469 18.207031 59.800781 21.308594 65.789062 C 24.191406 71.550781 29.070312 77.980469 35.722656 83.746094 C 42.375 89.511719 50.578125 94.164062 59.667969 98.15625 C 68.761719 102.148438 77.628906 105.03125 85.832031 107.691406 C 93.816406 110.351562 101.132812 112.789062 107.121094 115.226562 C 113.992188 118.109375 119.09375 120.550781 122.417969 122.324219 C 125.300781 125.425781 128.183594 128.753906 131.289062 132.078125 C 137.054688 138.949219 143.042969 146.265625 149.027344 153.582031 C 145.480469 152.253906 140.160156 150.257812 133.285156 148.707031 C 120.425781 145.160156 102.242188 142.941406 82.953125 137.621094 C 63.660156 132.300781 47.695312 122.542969 39.046875 112.789062 C 30.179688 103.253906 27.738281 95.050781 27.074219 95.496094 C 26.851562 95.496094 27.296875 97.714844 28.847656 101.039062 C 30.402344 104.585938 33.28125 109.242188 37.71875 114.121094 C 46.585938 124.316406 62.996094 134.292969 82.507812 139.617188 C 102.019531 144.9375 120.203125 147.375 133.0625 150.480469 C 141.265625 152.253906 147.476562 154.25 150.800781 155.136719 C 153.683594 158.683594 156.566406 162.230469 159.449219 165.777344 C 162.554688 169.988281 165.65625 173.980469 168.761719 178.191406 C 175.191406 186.617188 181.621094 195.484375 188.273438 204.355469 C 193.816406 212.335938 199.582031 220.761719 205.347656 229.183594 C 204.019531 228.078125 202.6875 226.96875 201.136719 225.859375 C 194.039062 220.980469 182.289062 216.992188 169.425781 215.4375 C 143.484375 212.558594 122.640625 211.226562 122.417969 212.113281 C 122.199219 213.445312 143.261719 214.996094 168.984375 217.65625 C 181.84375 219.207031 192.929688 222.976562 200.027344 227.410156 C 204.238281 229.851562 207.121094 232.511719 208.675781 233.839844 C 210.449219 236.5 212.222656 239.382812 213.996094 242.042969 C 209.78125 238.273438 202.6875 233.175781 193.152344 229.628906 C 176.746094 223.199219 162.109375 225.195312 162.332031 226.082031 C 162.332031 227.410156 176.523438 225.636719 192.265625 231.625 C 205.125 236.5 213.773438 244.261719 217.101562 246.699219 C 230.847656 267.984375 244.375 290.820312 257.675781 314.542969 C 257.234375 314.097656 257.011719 313.65625 256.570312 313.210938 C 250.804688 307.003906 240.605469 301.019531 229.515625 295.03125 C 207.121094 283.058594 189.160156 273.304688 188.496094 274.414062 C 188.054688 275.523438 206.011719 285.054688 228.410156 297.027344 C 239.71875 302.792969 249.472656 308.777344 255.238281 314.542969 C 261.003906 320.085938 262.777344 324.742188 263.664062 324.742188 C 264.109375 325.628906 264.550781 326.292969 264.996094 327.179688 C 268.765625 334.273438 272.535156 341.148438 276.082031 348.242188 C 273.421875 344.914062 269.207031 341.148438 263.664062 337.378906 C 257.234375 333.164062 248.808594 329.175781 239.496094 325.40625 C 230.183594 321.636719 219.984375 317.425781 209.117188 312.769531 C 187.832031 303.679688 168.761719 294.589844 154.792969 288.160156 C 141.046875 281.730469 132.398438 277.515625 132.175781 278.183594 C 131.953125 278.625 140.160156 283.28125 153.90625 290.152344 C 167.652344 297.027344 186.722656 305.894531 208.007812 314.984375 C 229.296875 324.519531 249.472656 330.949219 262.332031 338.929688 C 271.867188 344.695312 276.746094 350.902344 278.742188 353.785156 C 291.160156 377.949219 302.246094 401.671875 312.445312 424.730469 C 312.003906 424.285156 311.558594 423.621094 310.894531 422.957031 C 307.34375 419.628906 301.800781 415.195312 293.820312 411.648438 C 286.058594 407.878906 276.082031 404.996094 264.996094 402.558594 C 253.90625 400.121094 241.710938 398.125 229.296875 394.355469 C 204.460938 387.039062 183.617188 375.511719 169.425781 365.976562 C 155.238281 356.445312 147.476562 349.351562 147.03125 349.792969 C 146.808594 350.015625 148.585938 352.011719 152.132812 355.113281 C 155.679688 358.21875 161 362.652344 168.097656 367.75 C 182.066406 377.507812 203.132812 389.257812 228.410156 396.574219 C 241.046875 400.34375 253.242188 402.335938 264.328125 404.777344 C 275.414062 406.992188 284.949219 409.875 292.710938 413.421875 C 304.019531 418.523438 310.449219 424.507812 313.332031 427.167969 C 317.988281 437.589844 322.421875 447.789062 326.636719 457.984375 C 334.839844 478.824219 343.042969 498.335938 349.695312 516.960938 C 350.140625 518.066406 350.582031 519.175781 351.027344 520.285156 C 349.476562 518.511719 347.480469 516.515625 344.597656 514.519531 C 337.28125 509.644531 326.191406 504.542969 313.332031 500.996094 C 300.472656 497.449219 288.941406 495.230469 280.515625 493.238281 C 272.089844 491.242188 266.988281 489.910156 266.769531 490.578125 C 266.546875 491.019531 271.648438 493.015625 280.074219 495.230469 C 288.5 497.449219 300.25 499.886719 312.890625 503.433594 C 325.527344 506.984375 336.394531 511.859375 343.488281 516.292969 C 348.367188 519.398438 351.027344 522.503906 352.359375 524.277344 C 353.246094 526.492188 353.910156 528.710938 354.796875 530.925781 C 352.578125 528.488281 349.253906 525.605469 345.039062 522.503906 C 334.398438 514.964844 317.324219 508.535156 298.03125 504.765625 C 278.742188 500.996094 261.226562 498.113281 249.25 493.679688 C 237.054688 489.691406 230.402344 485.476562 229.960938 485.921875 C 229.738281 486.363281 236.167969 491.242188 248.363281 495.453125 C 260.558594 500.109375 278.078125 502.992188 297.367188 506.761719 C 316.4375 510.53125 333.289062 516.738281 343.710938 523.832031 C 349.476562 527.601562 353.464844 531.371094 355.90625 533.808594 C 357.015625 537.136719 358.34375 540.460938 359.453125 543.5625 C 362.335938 552.210938 365.21875 560.636719 367.878906 568.617188 C 369.429688 573.050781 370.984375 577.484375 372.3125 581.917969 C 372.535156 582.804688 372.757812 583.25 372.757812 583.472656 C 374.753906 589.457031 376.527344 595.445312 378.300781 600.984375 C 376.96875 599.433594 374.753906 597.4375 371.871094 595.445312 C 365.660156 591.007812 355.683594 587.460938 344.597656 585.023438 C 333.511719 582.585938 323.53125 580.144531 316.878906 577.042969 C 310.226562 574.160156 306.457031 571.277344 306.238281 571.941406 C 305.792969 572.386719 309.339844 575.710938 316.214844 579.039062 C 323.089844 582.363281 333.066406 585.023438 344.152344 587.460938 C 355.238281 589.902344 364.773438 593.449219 370.984375 597.21875 C 375.195312 599.878906 377.855469 602.316406 379.410156 603.425781 C 380.296875 606.308594 381.183594 608.96875 381.847656 611.628906 C 379.410156 608.746094 375.417969 604.976562 370.097656 601.871094 C 360.117188 595.886719 350.140625 595.222656 350.140625 596.332031 C 349.917969 597.660156 359.230469 598.105469 368.765625 603.867188 C 376.082031 608.082031 380.738281 613.84375 382.957031 615.839844 C 384.507812 620.941406 386.0625 625.816406 387.390625 630.25 C 388.5 634.242188 389.609375 638.011719 390.496094 641.558594 C 388.5 639.121094 385.175781 636.460938 380.738281 634.683594 C 376.082031 632.691406 371.425781 632.246094 368.324219 632.691406 C 364.996094 633.132812 363.222656 634.019531 363.445312 634.464844 C 363.664062 635.574219 371.203125 633.132812 379.851562 636.902344 C 386.0625 639.339844 389.832031 643.777344 391.605469 645.769531 C 394.042969 654.640625 396.039062 661.511719 397.371094 666.167969 C 398.035156 668.605469 398.699219 670.378906 398.921875 671.488281 C 399.363281 672.597656 399.585938 673.261719 399.585938 673.261719 C 399.585938 673.261719 399.585938 672.597656 399.363281 671.265625 C 399.144531 669.9375 398.699219 668.164062 398.035156 665.722656 C 396.925781 661.070312 395.152344 654.640625 393.15625 646.214844 C 393.15625 645.992188 393.15625 645.328125 392.714844 644.441406 C 392.269531 642.890625 391.824219 641.113281 391.382812 639.339844 C 391.824219 635.792969 391.382812 624.042969 395.375 610.519531 C 399.808594 594.335938 408.011719 583.25 407.125 582.585938 C 407.125 583.691406 398.476562 595 394.042969 611.628906 Z M 394.042969 611.628906 " fill-opacity="1" fill-rule="nonzero"/><g clip-path="url(#id4)"><path fill="#292e31" d="M 586.730469 213.445312 C 585.398438 217.210938 583.847656 222.753906 581.1875 230.070312 C 576.085938 244.261719 567.882812 264.65625 556.128906 289.046875 C 544.601562 313.433594 529.300781 342.035156 513.113281 374.179688 C 505.132812 390.367188 496.929688 407.214844 489.609375 425.394531 C 482.070312 443.351562 475.640625 462.640625 470.761719 482.816406 C 469.65625 487.917969 468.324219 492.792969 467.4375 497.894531 C 466.550781 502.992188 465.886719 508.089844 465 512.96875 C 463.445312 522.945312 463.667969 533.367188 465.886719 542.898438 C 466.992188 547.777344 468.988281 552.433594 471.871094 556.421875 C 474.753906 560.414062 478.746094 563.738281 483.402344 565.511719 C 492.9375 569.058594 502.472656 565.957031 511.117188 566.179688 C 515.332031 566.179688 519.765625 566.84375 523.09375 569.28125 C 526.417969 571.5 528.414062 575.488281 529.078125 579.480469 C 530.410156 587.683594 527.96875 595.664062 525.976562 603.203125 C 521.761719 618.5 515.773438 632.023438 509.34375 643.996094 C 496.261719 667.71875 481.40625 684.125 470.320312 694.324219 C 464.777344 699.421875 460.34375 703.191406 457.238281 705.632812 C 454.132812 708.070312 452.582031 709.402344 452.582031 709.621094 C 452.582031 709.84375 454.355469 708.515625 457.679688 706.296875 C 461.007812 704.078125 465.664062 700.3125 471.207031 695.210938 C 482.515625 685.011719 497.816406 668.828125 511.117188 644.882812 C 517.550781 632.910156 523.757812 619.167969 527.96875 603.648438 C 529.964844 595.886719 532.628906 587.683594 531.074219 578.816406 C 530.410156 574.382812 528.191406 569.945312 524.199219 567.285156 C 520.433594 564.40625 515.554688 563.738281 510.898438 563.738281 C 501.804688 563.738281 492.492188 566.398438 484.066406 563.296875 C 475.417969 560.191406 470.097656 551.324219 468.101562 542.234375 C 465.886719 532.921875 465.664062 522.945312 467.214844 513.191406 C 468.101562 508.3125 468.769531 503.214844 469.65625 498.113281 C 470.320312 493.015625 471.871094 488.136719 472.980469 483.039062 C 477.636719 463.085938 484.289062 443.796875 491.605469 425.839844 C 498.921875 407.660156 506.90625 390.808594 514.886719 374.625 C 530.851562 342.476562 546.152344 314.097656 557.683594 289.488281 C 569.214844 264.878906 577.195312 244.484375 582.074219 230.070312 C 584.511719 222.976562 586.066406 217.210938 587.171875 213.222656 C 588.28125 209.453125 588.726562 207.234375 588.503906 207.234375 C 588.726562 207.902344 588.058594 209.675781 586.730469 213.445312 Z M 586.730469 213.445312 " fill-opacity="1" fill-rule="nonzero"/></g><path fill="#292e31" d="M 459.453125 389.257812 C 446.816406 403.445312 437.058594 417.855469 431.738281 431.382812 C 426.195312 444.683594 424.644531 456.65625 424.863281 464.636719 C 424.863281 468.628906 425.308594 471.730469 425.75 473.949219 C 426.195312 475.945312 426.417969 477.050781 426.636719 477.050781 C 427.082031 477.050781 426.195312 472.617188 426.195312 464.636719 C 426.417969 456.65625 427.96875 445.125 433.734375 432.046875 C 439.054688 418.964844 448.8125 404.777344 461.449219 390.585938 C 473.867188 376.398438 489.167969 362.207031 503.136719 345.136719 C 531.519531 311.660156 551.472656 276.851562 563.226562 250.691406 C 569.214844 237.609375 573.425781 226.746094 576.085938 219.207031 C 578.746094 211.671875 579.855469 207.234375 579.632812 207.234375 C 579.414062 207.234375 577.640625 211.226562 574.757812 218.765625 C 571.875 226.300781 567.4375 236.945312 561.453125 249.804688 C 549.257812 275.742188 529.746094 310.328125 501.363281 343.585938 C 487.171875 360.65625 471.871094 375.066406 459.453125 389.257812 Z M 459.453125 389.257812 " fill-opacity="1" fill-rule="nonzero"/><path fill="#292e31" d="M 500.699219 471.953125 C 503.359375 462.640625 506.019531 453.996094 508.457031 445.570312 C 513.78125 428.71875 519.101562 413.867188 523.757812 401.449219 C 528.414062 389.035156 532.40625 379.058594 535.066406 372.183594 C 537.726562 365.3125 539.277344 361.320312 539.058594 361.320312 C 538.835938 361.101562 536.839844 364.871094 533.957031 371.742188 C 530.851562 378.613281 526.640625 388.371094 521.984375 401.007812 C 517.105469 413.421875 511.785156 428.5 506.460938 445.125 C 503.800781 453.550781 501.140625 462.417969 498.480469 471.511719 C 496.039062 480.820312 492.714844 490.132812 492.273438 500.773438 C 492.050781 505.875 492.492188 511.195312 494.933594 516.074219 C 497.148438 520.730469 501.363281 524.496094 506.019531 526.269531 C 510.675781 528.046875 515.554688 528.488281 520.210938 528.488281 C 524.867188 528.710938 529.300781 528.488281 533.734375 528.710938 C 537.949219 528.933594 542.160156 529.820312 545.710938 531.59375 C 549.257812 533.367188 552.140625 536.027344 554.578125 538.910156 C 559.234375 544.894531 561.007812 552.210938 561.675781 558.640625 C 562.339844 571.722656 557.90625 581.917969 555.242188 588.792969 C 552.582031 595.664062 550.808594 599.433594 551.03125 599.65625 C 551.253906 599.65625 553.25 596.109375 556.351562 589.457031 C 559.234375 582.585938 563.890625 572.386719 563.449219 558.640625 C 563.003906 551.988281 561.007812 544.230469 556.132812 537.800781 C 553.691406 534.695312 550.585938 531.59375 546.597656 529.597656 C 542.605469 527.601562 538.171875 526.714844 533.734375 526.492188 C 524.867188 525.605469 515.332031 527.15625 506.683594 524.054688 C 502.472656 522.503906 498.703125 519.175781 496.707031 514.964844 C 494.710938 510.75 494.046875 505.875 494.265625 500.773438 C 494.933594 490.578125 498.257812 481.042969 500.699219 471.953125 Z M 500.699219 471.953125 " fill-opacity="1" fill-rule="nonzero"/><path fill="#292e31" d="M 400.03125 744.207031 C 396.039062 738.664062 390.050781 733.566406 381.847656 730.460938 C 373.867188 727.582031 364.332031 726.914062 354.351562 728.46875 C 344.597656 730.019531 334.398438 733.34375 324.417969 738 C 314.21875 742.433594 304.242188 747.976562 293.15625 752.410156 C 287.613281 754.628906 281.847656 756.625 275.859375 757.734375 C 269.871094 758.839844 263.664062 759.507812 257.675781 757.734375 C 245.703125 754.183594 237.5 743.542969 233.953125 732.679688 C 230.183594 721.59375 230.183594 709.84375 230.625 698.980469 C 231.734375 677.03125 236.835938 657.742188 242.820312 642.445312 C 249.03125 627.148438 255.902344 615.398438 261.003906 607.636719 C 266.101562 599.878906 269.429688 595.886719 269.207031 595.664062 C 268.984375 595.664062 268.097656 596.550781 266.546875 598.324219 C 264.996094 600.097656 262.777344 602.980469 259.894531 606.75 C 254.351562 614.289062 247.253906 626.039062 240.824219 641.558594 C 234.394531 657.078125 229.296875 676.589844 228.1875 698.757812 C 227.742188 709.84375 227.742188 721.59375 231.511719 733.34375 C 235.28125 744.875 243.929688 756.179688 256.789062 759.949219 C 263.21875 761.722656 269.871094 761.28125 276.082031 759.949219 C 282.289062 758.621094 288.054688 756.625 293.820312 754.40625 C 305.128906 749.972656 315.328125 744.429688 325.304688 739.773438 C 335.285156 735.117188 345.039062 731.792969 354.796875 730.242188 C 364.332031 728.6875 373.421875 729.355469 381.183594 732.015625 C 388.722656 734.675781 394.707031 739.773438 398.476562 744.875 C 402.46875 749.972656 404.464844 755.292969 405.128906 759.949219 C 406.460938 769.039062 403.355469 773.917969 404.019531 773.917969 C 404.019531 773.917969 404.6875 772.808594 405.574219 770.589844 C 406.238281 768.152344 407.125 764.605469 406.460938 759.726562 C 406.015625 755.515625 404.023438 749.75 400.03125 744.207031 Z M 400.03125 744.207031 " fill-opacity="1" fill-rule="nonzero"/><path fill="#292e31" d="M 259.453125 635.574219 C 266.101562 614.289062 273.199219 602.316406 272.535156 601.871094 C 272.3125 601.652344 270.316406 604.753906 267.65625 610.296875 C 264.773438 615.839844 261.003906 624.265625 257.457031 634.90625 C 253.90625 645.550781 250.804688 658.628906 249.03125 673.484375 C 248.363281 681.023438 247.699219 688.558594 247.921875 696.984375 C 248.144531 700.976562 248.808594 705.1875 250.582031 709.402344 C 252.132812 713.390625 255.015625 717.382812 259.449219 719.378906 C 263.664062 721.371094 268.765625 720.707031 272.753906 719.378906 C 276.96875 717.824219 280.292969 715.609375 283.84375 713.390625 C 290.492188 708.734375 296.257812 703.414062 301.800781 698.316406 C 312.445312 688.117188 322.867188 679.691406 333.511719 676.367188 C 343.933594 672.597656 353.246094 673.261719 359.007812 675.257812 C 364.773438 677.253906 367.214844 679.914062 367.65625 679.691406 C 367.65625 679.691406 367.214844 679.027344 365.882812 677.917969 C 364.554688 676.808594 362.558594 675.480469 359.453125 674.148438 C 353.464844 671.710938 343.710938 670.824219 332.84375 674.59375 C 327.523438 676.367188 321.757812 679.25 316.4375 683.238281 C 311.113281 687.230469 305.792969 691.886719 300.25 696.984375 C 294.707031 702.085938 289.164062 707.183594 282.511719 711.839844 C 279.183594 714.054688 275.859375 716.273438 272.089844 717.605469 C 268.320312 718.933594 264.328125 719.378906 260.558594 717.824219 C 257.011719 716.273438 254.351562 712.949219 253.019531 709.179688 C 251.46875 705.410156 250.804688 701.417969 250.582031 697.648438 C 250.136719 689.890625 250.804688 681.910156 251.691406 674.59375 C 253.019531 659.074219 256.347656 645.992188 259.453125 635.574219 Z M 259.453125 635.574219 " fill-opacity="1" fill-rule="nonzero"/><path fill="#292e31" d="M 387.613281 745.761719 C 384.066406 742.65625 380.519531 741.105469 377.414062 739.996094 C 374.308594 738.886719 371.871094 738.445312 370.316406 738.445312 C 368.542969 738.222656 367.65625 738.445312 367.65625 738.445312 C 367.65625 738.886719 371.203125 739.109375 376.96875 741.328125 C 379.851562 742.433594 383.179688 744.207031 386.503906 747.089844 C 389.832031 749.972656 392.714844 754.183594 394.265625 759.285156 C 395.59375 764.382812 395.375 770.8125 392.046875 776.132812 C 388.722656 781.234375 381.625 784.78125 374.753906 783.894531 C 371.203125 783.449219 368.101562 781.453125 365.660156 778.574219 C 363.222656 775.914062 361.226562 772.363281 358.789062 769.039062 C 356.570312 765.714844 353.6875 762.167969 349.917969 759.949219 C 346.148438 757.511719 341.9375 756.179688 337.5 755.515625 C 328.632812 754.40625 319.539062 756.847656 312.890625 761.945312 C 306.015625 767.042969 302.023438 774.804688 300.472656 782.121094 C 298.917969 789.660156 299.363281 797.195312 301.359375 803.625 C 303.355469 810.277344 306.902344 815.597656 310.671875 820.03125 C 318.433594 828.679688 327.078125 832.890625 333.066406 834.886719 C 339.054688 836.882812 342.601562 837.101562 342.824219 836.882812 C 342.824219 836.4375 339.496094 835.773438 333.730469 833.554688 C 327.96875 831.117188 319.761719 826.90625 312.222656 818.703125 C 308.675781 814.488281 305.351562 809.167969 303.574219 802.960938 C 301.800781 796.753906 301.359375 789.660156 302.910156 782.5625 C 304.464844 775.46875 308.234375 768.375 314.441406 763.71875 C 320.648438 759.0625 329.074219 756.625 337.28125 757.734375 C 341.492188 758.175781 345.261719 759.507812 348.808594 761.722656 C 352.136719 763.941406 354.796875 766.824219 357.015625 770.148438 C 359.230469 773.472656 361.226562 777.019531 364.109375 779.902344 C 366.769531 783.007812 370.539062 785.222656 374.53125 785.890625 C 382.511719 786.996094 390.273438 783.007812 394.042969 777.019531 C 397.8125 771.035156 398.035156 763.941406 396.484375 758.398438 C 394.707031 753.078125 391.160156 748.640625 387.613281 745.761719 Z M 387.613281 745.761719 " fill-opacity="1" fill-rule="nonzero"/><g clip-path="url(#id5)"><path fill="#292e31" d="M 364.109375 815.15625 C 361.003906 813.378906 357.234375 812.492188 353.246094 812.492188 C 345.484375 812.050781 337.28125 813.378906 329.296875 810.054688 C 321.316406 807.171875 315.105469 801.410156 312.222656 794.757812 C 309.339844 788.105469 310.007812 781.011719 312.003906 776.132812 C 313.996094 771.035156 317.324219 767.710938 319.761719 765.9375 C 322.203125 764.160156 323.976562 763.71875 323.976562 763.273438 C 323.976562 763.054688 321.980469 763.273438 319.097656 764.828125 C 316.214844 766.378906 312.445312 769.925781 310.007812 775.246094 C 307.566406 780.566406 306.679688 788.328125 310.007812 795.644531 C 313.109375 802.960938 319.984375 809.167969 328.410156 812.273438 C 332.625 813.824219 337.058594 814.710938 341.269531 814.710938 C 345.484375 814.710938 349.476562 814.488281 353.023438 814.710938 C 356.792969 814.933594 360.117188 815.597656 362.777344 817.148438 C 365.441406 818.703125 367.433594 820.917969 368.324219 823.578125 C 370.316406 828.679688 369.210938 833.335938 367.878906 835.996094 C 366.546875 838.65625 364.996094 839.765625 365.441406 840.207031 C 365.441406 840.429688 367.433594 839.542969 369.210938 836.660156 C 370.984375 833.777344 372.535156 828.679688 370.316406 822.914062 C 369.652344 819.808594 367.433594 816.929688 364.109375 815.15625 Z M 364.109375 815.15625 " fill-opacity="1" fill-rule="nonzero"/></g><path fill="#292e31" d="M 481.628906 666.390625 C 486.507812 657.078125 489.832031 645.550781 488.945312 633.355469 C 488.503906 630.25 487.835938 627.148438 486.0625 624.488281 C 484.289062 621.828125 481.628906 619.832031 478.746094 618.945312 C 472.757812 617.171875 466.992188 618.722656 462.117188 620.941406 C 457.238281 623.378906 453.46875 626.480469 449.699219 629.363281 C 446.152344 632.023438 442.601562 634.464844 439.054688 635.792969 C 431.960938 638.453125 425.308594 636.460938 422.203125 634.019531 C 418.878906 631.359375 418.65625 628.699219 418.210938 628.921875 C 417.992188 628.921875 417.769531 631.804688 421.316406 635.128906 C 424.644531 638.234375 431.738281 640.671875 439.71875 637.789062 C 447.480469 635.128906 454.132812 627.8125 463.003906 623.15625 C 467.4375 621.160156 472.980469 619.832031 477.859375 621.382812 C 480.296875 622.269531 482.515625 623.820312 483.84375 626.039062 C 485.398438 628.257812 486.0625 630.917969 486.507812 633.796875 C 487.394531 645.328125 484.066406 656.632812 479.410156 665.503906 C 474.753906 674.59375 468.769531 681.6875 463.445312 687.453125 C 452.582031 698.535156 444.378906 703.859375 444.820312 704.523438 C 445.042969 704.746094 447.039062 703.636719 450.585938 700.976562 C 454.132812 698.535156 459.234375 694.324219 464.777344 688.78125 C 470.761719 683.015625 476.75 675.703125 481.628906 666.390625 Z M 481.628906 666.390625 " fill-opacity="1" fill-rule="nonzero"/><path fill="#292e31" d="M 447.039062 485.253906 C 451.695312 472.175781 454.796875 464.195312 454.132812 463.972656 C 453.691406 463.75 450.140625 471.730469 445.042969 484.589844 C 440.164062 497.671875 433.734375 516.074219 431.074219 537.355469 C 429.742188 548 429.742188 558.417969 432.402344 567.507812 C 433.734375 571.941406 435.730469 576.15625 438.167969 579.703125 C 440.609375 583.027344 443.710938 585.6875 446.816406 587.683594 C 453.023438 591.453125 459.011719 592.339844 463.003906 591.675781 C 466.992188 591.007812 468.988281 589.679688 468.769531 589.679688 C 468.546875 589.234375 466.550781 590.121094 462.78125 590.34375 C 459.011719 590.566406 453.46875 589.679688 447.703125 585.910156 C 444.820312 584.136719 442.160156 581.476562 439.71875 578.371094 C 437.503906 575.269531 435.730469 571.277344 434.398438 566.84375 C 431.960938 558.195312 431.960938 548 433.289062 537.578125 C 435.949219 516.515625 442.601562 498.335938 447.039062 485.253906 Z M 447.039062 485.253906 " fill-opacity="1" fill-rule="nonzero"/><path fill="#292e31" d="M 502.691406 670.601562 C 490.277344 685.234375 477.636719 697.207031 468.101562 705.410156 C 458.566406 713.613281 452.582031 718.492188 452.804688 718.933594 C 453.023438 719.378906 459.675781 714.941406 469.433594 706.960938 C 479.1875 698.757812 491.828125 686.785156 504.464844 672.152344 C 517.105469 657.519531 527.082031 643.109375 533.515625 632.246094 C 539.945312 621.382812 543.269531 614.289062 542.828125 614.066406 C 542.160156 613.84375 538.390625 620.496094 531.738281 631.136719 C 524.867188 641.558594 515.109375 655.96875 502.691406 670.601562 Z M 502.691406 670.601562 " fill-opacity="1" fill-rule="nonzero"/><path fill="#292e31" d="M 570.320312 657.078125 C 565.222656 654.859375 559.457031 655.082031 554.355469 656.632812 C 544.15625 660.183594 537.503906 668.605469 531.519531 675.257812 C 519.101562 689.226562 506.683594 700.53125 496.039062 709.621094 C 490.71875 714.054688 485.621094 718.046875 481.183594 721.59375 C 476.75 724.921875 472.757812 727.582031 469.210938 729.132812 C 462.117188 732.234375 457.460938 730.683594 457.460938 731.128906 C 457.460938 731.128906 458.566406 731.792969 460.5625 732.015625 C 462.78125 732.234375 465.886719 732.015625 469.65625 730.460938 C 473.425781 728.910156 477.636719 726.472656 482.070312 723.144531 C 486.726562 719.820312 491.605469 715.828125 497.148438 711.394531 C 508.015625 702.304688 520.433594 690.777344 533.070312 677.03125 C 539.277344 670.160156 545.710938 662.175781 555.023438 659.074219 C 559.679688 657.519531 564.777344 657.519531 569.433594 659.515625 C 573.871094 661.511719 576.972656 665.945312 577.417969 671.046875 C 577.859375 676.144531 576.085938 681.242188 573.425781 685.234375 C 570.542969 689.226562 566.332031 692.328125 562.117188 694.769531 C 553.25 699.421875 543.933594 702.527344 535.289062 706.296875 C 518.214844 713.835938 503.359375 722.925781 493.160156 732.679688 C 482.738281 742.433594 476.75 752.632812 473.644531 759.949219 C 472.09375 763.71875 471.207031 766.601562 470.761719 768.597656 C 470.320312 770.589844 470.097656 771.699219 470.320312 771.699219 C 470.761719 771.699219 471.648438 767.488281 474.976562 760.394531 C 478.300781 753.296875 484.511719 743.542969 494.710938 734.011719 C 504.910156 724.476562 519.324219 715.609375 536.398438 708.292969 C 544.824219 704.300781 554.136719 701.417969 563.449219 696.542969 C 567.882812 694.101562 572.316406 690.777344 575.644531 686.34375 C 578.746094 681.910156 580.523438 676.144531 580.078125 670.601562 C 579.191406 664.835938 575.644531 659.296875 570.320312 657.078125 Z M 570.320312 657.078125 " fill-opacity="1" fill-rule="nonzero"/><path fill="#292e31" d="M 551.253906 682.351562 C 547.484375 684.125 543.714844 685.898438 540.609375 687.894531 C 537.285156 689.890625 534.84375 692.328125 533.292969 694.769531 C 529.964844 699.867188 530.851562 703.859375 531.296875 703.636719 C 531.960938 703.636719 531.738281 700.089844 534.84375 695.875 C 536.398438 693.660156 538.613281 691.664062 541.71875 689.667969 C 544.824219 687.894531 548.371094 686.121094 552.140625 684.347656 C 555.910156 682.574219 559.679688 680.136719 561.894531 676.808594 C 563.003906 675.035156 563.667969 673.261719 563.667969 671.265625 C 563.667969 669.273438 562.5625 667.71875 561.453125 666.613281 C 559.234375 664.394531 556.128906 664.171875 554.578125 665.058594 C 552.804688 665.945312 552.804688 667.277344 553.027344 667.277344 C 553.25 667.5 553.914062 666.613281 555.023438 666.390625 C 556.128906 666.167969 558.347656 666.613281 560.121094 668.164062 C 561.007812 669.050781 561.675781 670.160156 561.675781 671.488281 C 561.675781 672.820312 561.230469 674.371094 560.34375 675.703125 C 558.125 678.363281 554.800781 680.578125 551.253906 682.351562 Z M 551.253906 682.351562 " fill-opacity="1" fill-rule="nonzero"/><path fill="#292e31" d="M 463.667969 271.972656 C 482.070312 260.890625 497.59375 248.472656 506.242188 236.945312 C 510.675781 231.402344 513.335938 226.300781 514.886719 222.535156 C 516.441406 218.765625 516.882812 216.769531 516.664062 216.546875 C 515.996094 216.324219 513.335938 224.75 504.464844 235.613281 C 495.820312 246.699219 480.519531 258.894531 462.335938 269.757812 C 443.933594 280.84375 427.304688 291.039062 416.882812 301.019531 C 411.558594 305.894531 407.789062 310.109375 405.574219 313.433594 C 403.132812 316.539062 402.246094 318.53125 402.46875 318.753906 C 403.132812 319.199219 407.789062 311.882812 418.433594 302.570312 C 428.855469 293.035156 445.265625 283.058594 463.667969 271.972656 Z M 463.667969 271.972656 " fill-opacity="1" fill-rule="nonzero"/><path fill="#292e31" d="M 232.398438 595 C 232.179688 594.777344 230.183594 596.332031 226.414062 599.210938 C 222.644531 602.09375 217.320312 606.527344 210.226562 610.742188 C 206.679688 612.738281 202.464844 614.730469 197.808594 616.285156 C 193.152344 617.613281 187.832031 618.5 182.730469 617.613281 C 177.410156 616.949219 172.753906 613.179688 170.535156 607.859375 C 168.320312 602.539062 167.652344 596.332031 167.652344 589.902344 C 167.433594 564.183594 174.527344 541.570312 181.84375 526.492188 C 189.160156 511.417969 195.8125 503.214844 195.148438 502.769531 C 194.925781 502.546875 193.152344 504.542969 190.269531 508.3125 C 187.386719 512.082031 183.839844 518.066406 179.847656 525.605469 C 172.308594 540.683594 164.769531 563.738281 165.214844 589.902344 C 165.214844 596.332031 165.65625 602.980469 168.320312 608.746094 C 169.648438 611.628906 171.421875 614.289062 173.863281 616.285156 C 176.300781 618.277344 179.40625 619.386719 182.289062 619.832031 C 188.054688 620.71875 193.597656 619.609375 198.472656 618.277344 C 203.351562 616.726562 207.566406 614.730469 211.335938 612.515625 C 218.652344 608.082031 223.972656 603.425781 227.523438 600.320312 C 230.625 597.21875 232.621094 595.222656 232.398438 595 Z M 232.398438 595 " fill-opacity="1" fill-rule="nonzero"/></svg>